<svg xmlns="http://www.w3.org/2000/svg" viewBox="0 0 200 200">
 <!-- Background circle with gradient effect -->
 <defs>
 <linearGradient id="bgGradient" x1="0%" y1="0%" x2="100%" y2="100%">
 <stop offset="0%" style="stop-color:#FF3333"/>
 <stop offset="100%" style="stop-color:#CC0000"/>
 </linearGradient>
 <linearGradient id="goldGradient" x1="0%" y1="0%" x2="100%" y2="0%">
 <stop offset="0%" style="stop-color:#FFD700"/>
 <stop offset="100%" style="stop-color:#FFA500"/>
 </linearGradient>
 </defs>
 <circle cx="100" cy="100" r="90" fill="url(#bgGradient)"/>
 <circle cx="100" cy="100" r="85" stroke="#FFD700" stroke-width="1" fill="none" opacity="0.3"/>
 <path d="M40 130 Q70 130 85 110 T115 90 T160 70" stroke="url(#goldGradient)" stroke-width="15" fill="none" stroke-linecap="round"/>
 <g transform="translate(160, 70) rotate(-30)">
 <path d="M-5 0 L5 0 L0 -8 Z" fill="#FFD700"/>
 <circle cx="0" cy="-2" r="1.5" fill="#000"/>
 </g>
 <path d="M60 150 C80 140, 120 140, 140 150" stroke="#FFD700" stroke-width="2" fill="none" stroke-dasharray="1 3"/>
 <circle cx="80" cy="110" r="2" fill="#FFE066" opacity="0.8"/>
 <circle cx="110" cy="90" r="2" fill="#FFE066" opacity="0.8"/>
 <circle cx="140" cy="70" r="2" fill="#FFE066" opacity="0.8"/>
 <path d="M50 160 Q70 155 90 160" stroke="#FFD700" stroke-width="1.5" fill="none" opacity="0.4"/>
 <path d="M110 160 Q130 155 150 160" stroke="#FFD700" stroke-width="1.5" fill="none" opacity="0.4"/>
</svg> 